<svg xmlns="http://www.w3.org/2000/svg" xmlns:xlink="http://www.w3.org/1999/xlink" width="2048" zoomAndPan="magnify" viewBox="0 0 1536 1535.999932" height="2048" preserveAspectRatio="xMidYMid meet" version="1.0"><path fill="#afc1d0" d="M 859.515625 450.164062 L 998.027344 447.691406 C 1047.496094 447.691406 1074.707031 437.796875 1074.707031 371.015625 L 1072.230469 304.230469 C 1072.230469 257.238281 1057.390625 230.027344 1007.921875 230.027344 L 968.347656 230.027344 C 923.824219 230.027344 913.933594 247.34375 916.40625 284.445312 L 916.40625 351.226562 C 916.40625 373.488281 899.089844 393.277344 874.355469 393.277344 L 790.261719 395.75 C 768 395.75 748.210938 378.433594 748.210938 353.699219 L 748.210938 291.863281 C 748.210938 234.976562 703.691406 239.921875 664.117188 239.921875 L 562.707031 242.394531 C 530.550781 242.394531 503.34375 217.660156 500.871094 183.035156 L 498.394531 61.835938 C 498.394531 29.679688 523.128906 2.472656 557.757812 0 L 678.957031 -2.472656 C 711.109375 -2.472656 738.320312 22.261719 740.792969 56.890625 L 743.265625 155.824219 C 743.265625 200.347656 753.160156 225.082031 810.046875 225.082031 L 842.203125 225.082031 C 881.777344 225.082031 906.511719 212.714844 906.511719 165.71875 L 906.511719 103.882812 C 906.511719 81.625 923.824219 61.835938 948.558594 61.835938 L 1035.128906 59.363281 C 1057.390625 59.363281 1077.179688 76.675781 1077.179688 101.410156 L 1077.179688 158.300781 C 1077.179688 212.714844 1106.859375 227.554688 1161.273438 225.082031 L 1240.425781 222.609375 C 1270.105469 222.609375 1297.3125 247.34375 1297.3125 277.023438 L 1299.789062 390.800781 C 1299.789062 420.484375 1275.054688 447.691406 1245.371094 447.691406 L 1158.800781 450.164062 C 1094.492188 450.164062 1082.125 474.898438 1082.125 529.3125 L 1084.597656 667.824219 C 1084.597656 697.507812 1062.339844 722.242188 1030.183594 722.242188 L 861.992188 724.714844 C 832.308594 724.714844 807.574219 702.453125 807.574219 670.300781 L 805.101562 502.105469 C 805.101562 472.425781 827.363281 447.691406 859.515625 447.691406 Z M 859.515625 450.164062 " fill-opacity="1" fill-rule="evenodd"/><path fill="#afc1d0" d="M 676.484375 1085.835938 L 537.972656 1088.308594 C 488.503906 1088.308594 461.292969 1098.203125 461.292969 1164.984375 L 463.769531 1231.769531 C 463.769531 1278.761719 478.609375 1305.972656 528.078125 1305.972656 L 567.652344 1305.972656 C 612.175781 1305.972656 622.066406 1288.65625 619.59375 1251.554688 L 617.121094 1184.773438 C 617.121094 1162.511719 634.433594 1142.726562 659.167969 1142.726562 L 743.265625 1140.25 C 765.527344 1140.25 785.3125 1157.566406 785.3125 1182.300781 L 785.3125 1244.136719 C 785.3125 1301.023438 829.835938 1296.078125 869.410156 1296.078125 L 970.820312 1293.605469 C 1002.976562 1293.605469 1030.183594 1318.339844 1032.65625 1352.964844 L 1035.128906 1474.164062 C 1035.128906 1506.320312 1010.394531 1533.527344 975.769531 1536 L 854.570312 1538.472656 C 822.414062 1538.472656 795.207031 1513.738281 792.734375 1479.109375 L 790.261719 1380.175781 C 790.261719 1335.652344 780.367188 1310.917969 723.476562 1310.917969 L 691.324219 1310.917969 C 651.75 1310.917969 627.015625 1323.285156 627.015625 1370.28125 L 627.015625 1432.117188 C 627.015625 1454.375 609.699219 1474.164062 584.964844 1474.164062 L 498.394531 1476.636719 C 476.136719 1476.636719 456.347656 1459.324219 456.347656 1434.589844 L 456.347656 1377.699219 C 456.347656 1323.285156 426.667969 1308.445312 372.25 1310.917969 L 293.101562 1313.390625 C 263.421875 1313.390625 236.210938 1288.65625 236.210938 1258.976562 L 233.738281 1145.199219 C 233.738281 1115.515625 258.472656 1088.308594 288.15625 1088.308594 L 374.726562 1085.835938 C 439.035156 1085.835938 451.402344 1061.101562 451.402344 1006.6875 L 448.925781 868.175781 C 448.925781 838.492188 471.1875 813.757812 503.34375 813.757812 L 671.535156 811.285156 C 701.21875 811.285156 725.953125 833.546875 725.953125 865.699219 L 728.425781 1033.894531 C 728.425781 1063.574219 706.164062 1088.308594 674.007812 1088.308594 Z M 676.484375 1085.835938 " fill-opacity="1" fill-rule="evenodd"/><path fill="#0b1320" d="M 1084.597656 855.808594 L 1087.074219 994.320312 C 1087.074219 1043.789062 1096.964844 1070.996094 1163.75 1070.996094 L 1230.53125 1068.523438 C 1277.527344 1068.523438 1304.734375 1053.679688 1304.734375 1004.210938 L 1304.734375 964.636719 C 1304.734375 920.117188 1287.421875 910.222656 1250.320312 912.695312 L 1183.535156 915.167969 C 1161.277344 915.167969 1141.488281 897.855469 1141.488281 873.121094 L 1139.015625 789.023438 C 1139.015625 766.761719 1156.328125 746.976562 1181.0625 746.976562 L 1242.898438 746.976562 C 1299.789062 746.976562 1294.839844 702.453125 1294.839844 662.878906 L 1292.367188 561.46875 C 1292.367188 529.3125 1317.101562 502.105469 1351.730469 499.632812 L 1472.925781 497.160156 C 1505.082031 497.160156 1532.289062 521.894531 1534.761719 556.523438 L 1537.238281 677.71875 C 1537.238281 709.875 1512.503906 737.082031 1477.875 739.554688 L 1378.9375 742.027344 C 1334.414062 742.027344 1309.679688 751.921875 1309.679688 808.8125 L 1309.679688 840.964844 C 1309.679688 880.539062 1322.046875 905.273438 1369.042969 905.273438 L 1430.878906 905.273438 C 1453.140625 905.273438 1472.925781 922.589844 1472.925781 947.324219 L 1475.402344 1033.894531 C 1475.402344 1056.15625 1458.085938 1075.941406 1433.351562 1075.941406 L 1376.464844 1075.941406 C 1322.046875 1075.941406 1307.207031 1105.621094 1309.679688 1160.039062 L 1312.15625 1239.1875 C 1312.15625 1268.871094 1287.421875 1296.078125 1257.738281 1296.078125 L 1143.960938 1298.550781 C 1114.28125 1298.550781 1087.074219 1273.816406 1087.074219 1244.136719 L 1084.597656 1157.566406 C 1084.597656 1093.257812 1059.863281 1080.890625 1005.449219 1080.890625 L 866.9375 1083.363281 C 837.257812 1083.363281 812.523438 1061.101562 812.523438 1028.945312 L 810.046875 860.753906 C 810.046875 831.074219 832.308594 806.339844 864.464844 806.339844 L 1032.65625 803.863281 C 1062.339844 803.863281 1087.074219 826.125 1087.074219 858.28125 Z M 1084.597656 855.808594 " fill-opacity="1" fill-rule="evenodd"/><path fill="#0b1320" d="M 451.402344 680.191406 L 448.925781 541.679688 C 448.925781 492.210938 439.035156 465.003906 372.25 465.003906 L 305.46875 467.476562 C 258.472656 467.476562 231.265625 482.320312 231.265625 531.789062 L 231.265625 571.363281 C 231.265625 615.882812 248.578125 625.777344 285.679688 623.304688 L 352.464844 620.832031 C 374.726562 620.832031 394.511719 638.144531 394.511719 662.878906 L 396.984375 746.976562 C 396.984375 769.238281 379.671875 789.023438 354.9375 789.023438 L 293.101562 789.023438 C 236.210938 789.023438 241.160156 833.546875 241.160156 873.121094 L 243.632812 974.53125 C 243.632812 1006.6875 218.898438 1033.894531 184.269531 1036.367188 L 63.074219 1038.839844 C 30.917969 1038.839844 3.710938 1014.105469 1.238281 979.476562 L -1.238281 858.28125 C -1.238281 826.125 23.496094 798.917969 58.125 796.445312 L 157.0625 793.972656 C 201.585938 793.972656 226.320312 784.078125 226.320312 727.1875 L 226.320312 695.035156 C 226.320312 655.460938 213.953125 630.726562 166.957031 630.726562 L 105.121094 630.726562 C 82.859375 630.726562 63.074219 613.410156 63.074219 588.675781 L 60.597656 502.105469 C 60.597656 479.84375 77.914062 460.058594 102.648438 460.058594 L 159.535156 460.058594 C 213.953125 460.058594 228.792969 430.378906 226.320312 375.960938 L 223.84375 296.8125 C 223.84375 267.128906 248.578125 239.921875 278.261719 239.921875 L 392.039062 237.449219 C 421.71875 237.449219 448.925781 262.183594 448.925781 291.863281 L 451.402344 378.433594 C 451.402344 442.746094 476.136719 455.109375 530.550781 455.109375 L 669.0625 452.636719 C 698.742188 452.636719 723.476562 474.898438 723.476562 507.054688 L 725.953125 675.246094 C 725.953125 704.929688 703.691406 729.660156 671.535156 729.660156 L 503.34375 732.136719 C 473.660156 732.136719 448.925781 709.875 448.925781 677.71875 Z M 451.402344 680.191406 " fill-opacity="1" fill-rule="evenodd"/></svg>