<svg
  xmlns="http://www.w3.org/2000/svg"
  xmlns:xlink="http://www.w3.org/1999/xlink"
  zoomAndPan="magnify"
  viewBox="0 0 375 374.999991"
  preserveAspectRatio="xMidYMid meet"
  version="1.0"
>
  <!-- <rect x="-37.5" width="450" fill="#ffffff" y="-37.499999" height="449.999989"
  fill-opacity="1"></rect> -->
  <!-- <rect x="-37.5" width="450" fill="#ffffff" y="-37.499999" height="449.999989"
  fill-opacity="1"></rect> -->
  <!-- <rect x="-37.5" width="450" fill="#ffffff" y="-37.499999" height="449.999989"
  fill-opacity="1"></rect> -->
  <path
    fill="#44fdaf"
    d="M 209.84375 109.902344 L 243.660156 109.300781 C 255.738281 109.300781 262.378906 106.882812 262.378906 90.578125 L 261.773438 74.273438 C 261.773438 62.800781 258.152344 56.160156 246.074219 56.160156 L 236.414062 56.160156 C 225.542969 56.160156 223.128906 60.386719 223.730469 69.445312 L 223.730469 85.75 C 223.730469 91.183594 219.503906 96.015625 213.464844 96.015625 L 192.933594 96.617188 C 187.5 96.617188 182.667969 92.390625 182.667969 86.351562 L 182.667969 71.257812 C 182.667969 57.367188 171.800781 58.574219 162.136719 58.574219 L 137.378906 59.179688 C 129.527344 59.179688 122.886719 53.140625 122.28125 44.6875 L 121.679688 15.097656 C 121.679688 7.246094 127.71875 0.605469 136.171875 0 L 165.761719 -0.605469 C 173.609375 -0.605469 180.253906 5.433594 180.859375 13.890625 L 181.460938 38.042969 C 181.460938 48.914062 183.875 54.953125 197.765625 54.953125 L 205.617188 54.953125 C 215.277344 54.953125 221.316406 51.933594 221.316406 40.457031 L 221.316406 25.363281 C 221.316406 19.925781 225.542969 15.097656 231.582031 15.097656 L 252.71875 14.492188 C 258.152344 14.492188 262.984375 18.71875 262.984375 24.757812 L 262.984375 38.648438 C 262.984375 51.933594 270.230469 55.554688 283.515625 54.953125 L 302.839844 54.347656 C 310.085938 54.347656 316.726562 60.386719 316.726562 67.632812 L 317.332031 95.410156 C 317.332031 102.65625 311.292969 109.300781 304.046875 109.300781 L 282.910156 109.902344 C 267.210938 109.902344 264.191406 115.941406 264.191406 129.226562 L 264.792969 163.042969 C 264.792969 170.289062 259.359375 176.328125 251.507812 176.328125 L 210.445312 176.933594 C 203.199219 176.933594 197.160156 171.496094 197.160156 163.648438 L 196.558594 122.585938 C 196.558594 115.339844 201.992188 109.300781 209.84375 109.300781 Z M 209.84375 109.902344 "
    fill-opacity="1"
    fill-rule="evenodd"></path>
  <path
    fill="#44fdaf"
    d="M 165.15625 265.097656 L 131.339844 265.699219 C 119.261719 265.699219 112.621094 268.117188 112.621094 284.421875 L 113.226562 300.726562 C 113.226562 312.199219 116.847656 318.839844 128.925781 318.839844 L 138.585938 318.839844 C 149.457031 318.839844 151.871094 314.613281 151.269531 305.554688 L 150.664062 289.25 C 150.664062 283.816406 154.890625 278.984375 160.929688 278.984375 L 181.460938 278.382812 C 186.894531 278.382812 191.726562 282.609375 191.726562 288.648438 L 191.726562 303.742188 C 191.726562 317.632812 202.597656 316.425781 212.257812 316.425781 L 237.015625 315.820312 C 244.867188 315.820312 251.507812 321.859375 252.113281 330.3125 L 252.71875 359.902344 C 252.71875 367.753906 246.679688 374.394531 238.226562 375 L 208.636719 375.605469 C 200.785156 375.605469 194.140625 369.566406 193.539062 361.109375 L 192.933594 336.957031 C 192.933594 326.085938 190.519531 320.046875 176.628906 320.046875 L 168.78125 320.046875 C 159.117188 320.046875 153.078125 323.066406 153.078125 334.542969 L 153.078125 349.636719 C 153.078125 355.074219 148.851562 359.902344 142.8125 359.902344 L 121.679688 360.507812 C 116.242188 360.507812 111.414062 356.28125 111.414062 350.242188 L 111.414062 336.351562 C 111.414062 323.066406 104.167969 319.445312 90.882812 320.046875 L 71.558594 320.652344 C 64.3125 320.652344 57.667969 314.613281 57.667969 307.367188 L 57.066406 279.589844 C 57.066406 272.34375 63.105469 265.699219 70.351562 265.699219 L 91.484375 265.097656 C 107.1875 265.097656 110.207031 259.058594 110.207031 245.773438 L 109.601562 211.957031 C 109.601562 204.710938 115.035156 198.671875 122.886719 198.671875 L 163.949219 198.066406 C 171.195312 198.066406 177.234375 203.503906 177.234375 211.351562 L 177.839844 252.414062 C 177.839844 259.660156 172.402344 265.699219 164.554688 265.699219 Z M 165.15625 265.097656 "
    fill-opacity="1"
    fill-rule="evenodd"></path>
  <path
    fill="#7ee383"
    d="M 264.792969 208.9375 L 265.398438 242.753906 C 265.398438 254.832031 267.8125 261.472656 284.117188 261.472656 L 300.421875 260.871094 C 311.894531 260.871094 318.539062 257.246094 318.539062 245.167969 L 318.539062 235.507812 C 318.539062 224.636719 314.3125 222.222656 305.253906 222.824219 L 288.949219 223.429688 C 283.515625 223.429688 278.683594 219.203125 278.683594 213.164062 L 278.078125 192.632812 C 278.078125 187.199219 282.308594 182.367188 288.34375 182.367188 L 303.441406 182.367188 C 317.332031 182.367188 316.125 171.496094 316.125 161.835938 L 315.519531 137.078125 C 315.519531 129.226562 321.558594 122.585938 330.011719 121.980469 L 359.601562 121.375 C 367.453125 121.375 374.09375 127.414062 374.699219 135.871094 L 375.300781 165.457031 C 375.300781 173.308594 369.261719 179.953125 360.808594 180.554688 L 336.65625 181.160156 C 325.785156 181.160156 319.746094 183.574219 319.746094 197.464844 L 319.746094 205.3125 C 319.746094 214.976562 322.765625 221.015625 334.238281 221.015625 L 349.335938 221.015625 C 354.769531 221.015625 359.601562 225.242188 359.601562 231.28125 L 360.207031 252.414062 C 360.207031 257.851562 355.976562 262.679688 349.941406 262.679688 L 336.050781 262.679688 C 322.765625 262.679688 319.140625 269.925781 319.746094 283.210938 L 320.351562 302.535156 C 320.351562 309.78125 314.3125 316.425781 307.066406 316.425781 L 279.289062 317.027344 C 272.042969 317.027344 265.398438 310.992188 265.398438 303.742188 L 264.792969 282.609375 C 264.792969 266.910156 258.757812 263.890625 245.472656 263.890625 L 211.65625 264.492188 C 204.410156 264.492188 198.371094 259.058594 198.371094 251.207031 L 197.765625 210.144531 C 197.765625 202.898438 203.199219 196.859375 211.050781 196.859375 L 252.113281 196.257812 C 259.359375 196.257812 265.398438 201.691406 265.398438 209.542969 Z M 264.792969 208.9375 "
    fill-opacity="1"
    fill-rule="evenodd"></path>
  <path
    fill="#7ee383"
    d="M 110.207031 166.0625 L 109.601562 132.246094 C 109.601562 120.167969 107.1875 113.527344 90.882812 113.527344 L 74.578125 114.128906 C 63.105469 114.128906 56.460938 117.753906 56.460938 129.832031 L 56.460938 139.492188 C 56.460938 150.363281 60.6875 152.777344 69.746094 152.175781 L 86.050781 151.570312 C 91.484375 151.570312 96.316406 155.796875 96.316406 161.835938 L 96.921875 182.367188 C 96.921875 187.800781 92.691406 192.632812 86.65625 192.632812 L 71.558594 192.632812 C 57.667969 192.632812 58.875 203.503906 58.875 213.164062 L 59.480469 237.921875 C 59.480469 245.773438 53.441406 252.414062 44.988281 253.019531 L 15.398438 253.625 C 7.546875 253.625 0.90625 247.585938 0.300781 239.128906 L -0.300781 209.542969 C -0.300781 201.691406 5.738281 195.046875 14.191406 194.445312 L 38.34375 193.839844 C 49.214844 193.839844 55.253906 191.425781 55.253906 177.535156 L 55.253906 169.6875 C 55.253906 160.023438 52.234375 153.984375 40.761719 153.984375 L 25.664062 153.984375 C 20.230469 153.984375 15.398438 149.757812 15.398438 143.71875 L 14.792969 122.585938 C 14.792969 117.148438 19.023438 112.320312 25.058594 112.320312 L 38.949219 112.320312 C 52.234375 112.320312 55.859375 105.074219 55.253906 91.789062 L 54.648438 72.464844 C 54.648438 65.21875 60.6875 58.574219 67.933594 58.574219 L 95.710938 57.972656 C 102.957031 57.972656 109.601562 64.007812 109.601562 71.257812 L 110.207031 92.390625 C 110.207031 108.09375 116.242188 111.109375 129.527344 111.109375 L 163.34375 110.507812 C 170.589844 110.507812 176.628906 115.941406 176.628906 123.792969 L 177.234375 164.855469 C 177.234375 172.101562 171.800781 178.140625 163.949219 178.140625 L 122.886719 178.742188 C 115.640625 178.742188 109.601562 173.308594 109.601562 165.457031 Z M 110.207031 166.0625 "
    fill-opacity="1"
    fill-rule="evenodd"></path>
</svg>